<svg preserveAspectRatio="none" overflow="visible" style="display: block;" width="56" height="56" viewBox="0 0 56 56" fill="none" xmlns="http://www.w3.org/2000/svg">
<g id="Calendar [PUBLISHED]">
<g id="art_layer">
<g id="bounding box">
</g>
<path id="back flap" d="M9.3333 12.1333C9.3333 7.49413 13.0941 3.73333 17.7333 3.73333H38.2666C42.9058 3.73333 46.6666 7.49414 46.6666 12.1333V21C46.6666 25.6392 42.9058 29.4 38.2666 29.4H17.7333C13.0941 29.4 9.3333 25.6392 9.3333 21V12.1333Z" fill="#BBE2FF"/>
<path id="body" d="M5.79461 15.8059C5.19699 11.264 8.73207 7.23333 13.3131 7.23333H42.6868C47.2679 7.23333 50.8029 11.264 50.2053 15.8059L48.4166 29.4L50.2053 42.994C50.8029 47.536 47.2679 51.5667 42.6868 51.5667H13.3131C8.73208 51.5667 5.19699 47.536 5.79461 42.994L7.5833 29.4L5.79461 15.8059Z" fill="#3C90FF"/>
<g id="shaded">
<mask id="mask0_0_4" style="mask-type:alpha" maskUnits="userSpaceOnUse" x="5" y="7" width="46" height="45">
<path id="Rectangle 1739334204" d="M5.79461 15.8059C5.19699 11.264 8.73207 7.23333 13.3131 7.23333H42.6868C47.2679 7.23333 50.8029 11.264 50.2053 15.8059L48.4166 29.4L50.2053 42.994C50.8029 47.536 47.2679 51.5667 42.6868 51.5667H13.3131C8.73208 51.5667 5.19699 47.536 5.79461 42.994L7.5833 29.4L5.79461 15.8059Z" fill="#3C90FF"/>
</mask>
<g mask="url(#mask0_0_4)">
<rect id="Rectangle 1739334219" width="48.4167" height="22.1667" transform="matrix(1 0 0 -1 3.79155 51.5667)" fill="url(#paint0_linear_0_4)"/>
</g>
</g>
<g id="energy">
<mask id="mask1_0_4" style="mask-type:alpha" maskUnits="userSpaceOnUse" x="5" y="7" width="46" height="45">
<path id="Rectangle 1739334213" d="M5.79461 15.8059C5.19699 11.264 8.73207 7.23333 13.3131 7.23333H42.6868C47.2679 7.23333 50.8029 11.264 50.2053 15.8059L48.4166 29.4L50.2053 42.994C50.8029 47.536 47.2679 51.5667 42.6868 51.5667H13.3131C8.73208 51.5667 5.19699 47.536 5.79461 42.994L7.5833 29.4L5.79461 15.8059Z" fill="#3186FF"/>
</mask>
<g mask="url(#mask1_0_4)">
<g id="Rectangle 1739334212" filter="url(#filter0_f_0_4)">
<path d="M9.33322 9.33332C9.33322 6.24053 11.8404 3.73333 14.9332 3.73333H41.0666C44.1594 3.73333 46.6666 6.24053 46.6666 9.33333V29.4H9.33322V9.33332Z" fill="url(#paint1_linear_0_4)"/>
</g>
</g>
</g>
<g id="mod">
<g id="31">
<path d="M21.9781 40.289C20.7565 40.289 19.7088 40.0904 18.8348 39.6931C17.9608 39.2959 17.221 38.7646 16.6152 38.0992C16.0193 37.4238 15.5972 36.7634 15.3489 36.1179C15.1006 35.4723 15.0013 35.08 15.051 34.941C15.1106 34.792 15.2099 34.6828 15.3489 34.6133L17.0025 33.9578C17.1415 33.8883 17.2805 33.8784 17.4196 33.928C17.5586 33.9677 17.7225 34.1962 17.9112 34.6133C18.1098 35.0304 18.3879 35.4723 18.7454 35.9391C19.1129 36.3959 19.5499 36.7584 20.0563 37.0266C20.5628 37.2848 21.1885 37.4139 21.9334 37.4139C23.1351 37.4139 24.0885 37.0663 24.7936 36.3711C25.5086 35.6759 25.8662 34.792 25.8662 33.7195C25.8662 32.5575 25.4888 31.6637 24.734 31.038C23.9792 30.4024 22.9811 30.0846 21.7397 30.0846H20.1755C20.0266 30.0846 19.8974 30.0349 19.7882 29.9356C19.6889 29.8264 19.6392 29.7022 19.6392 29.5632V27.9692C19.6392 27.8203 19.6889 27.6961 19.7882 27.5968C19.8974 27.4876 20.0266 27.4329 20.1755 27.4329H21.5311C22.6435 27.4329 23.5373 27.13 24.2126 26.5242C24.8879 25.9184 25.2256 25.1338 25.2256 24.1705C25.2256 23.2171 24.9227 22.4474 24.3169 21.8615C23.7111 21.2755 22.8768 20.9826 21.8142 20.9826C21.2183 20.9826 20.7019 21.0819 20.2649 21.2805C19.8279 21.4791 19.4505 21.7572 19.1327 22.1147C18.8149 22.4623 18.5418 22.8298 18.3134 23.2171C18.085 23.5945 17.9013 23.8031 17.7622 23.8428C17.6232 23.8726 17.4891 23.8477 17.36 23.7683L15.7958 23.0085C15.6667 22.939 15.5823 22.8298 15.5426 22.6808C15.5028 22.5318 15.622 22.1843 15.9001 21.638C16.1881 21.0819 16.6251 20.5158 17.211 19.9398C17.8069 19.3538 18.4922 18.9069 19.2668 18.5991C20.0514 18.2812 20.9651 18.1223 22.0078 18.1223C23.9445 18.1223 25.4788 18.6338 26.611 19.6567C27.7432 20.6697 28.3093 22.0105 28.3093 23.6789C28.3093 24.8309 28.0312 25.829 27.475 26.6732C26.9288 27.5174 26.1542 28.1132 25.1511 28.4608V28.5204C26.3627 28.8779 27.3161 29.5334 28.0113 30.4868C28.7164 31.4303 29.069 32.5575 29.069 33.8684C29.069 35.7454 28.4135 37.2848 27.1026 38.4865C25.7917 39.6882 24.0835 40.289 21.9781 40.289Z" fill="white"/>
<path d="M36.926 39.9464C36.7572 39.9464 36.6082 39.8818 36.4791 39.7527C36.3599 39.6236 36.3003 39.4697 36.3003 39.2909V22.7255L32.9485 25.1388C32.8293 25.2282 32.6903 25.258 32.5314 25.2282C32.3824 25.1984 32.2632 25.1239 32.1739 25.0047L31.2056 23.6342C31.1162 23.5051 31.0814 23.3661 31.1013 23.2171C31.1311 23.0582 31.2105 22.9341 31.3396 22.8447L37.2835 18.5991C37.3332 18.5593 37.3878 18.5295 37.4474 18.5097C37.507 18.4799 37.5765 18.465 37.6559 18.465H38.9073C39.0761 18.465 39.2102 18.5246 39.3095 18.6437C39.4187 18.753 39.4734 18.892 39.4734 19.0609V39.2909C39.4734 39.4697 39.4088 39.6236 39.2797 39.7527C39.1605 39.8818 39.0116 39.9464 38.8328 39.9464H36.926Z" fill="white"/>
</g>
</g>
</g>
</g>
<defs>
<filter id="filter0_f_0_4" x="5.83322" y="0.233327" width="44.3333" height="32.6667" filterUnits="userSpaceOnUse" color-interpolation-filters="sRGB">
<feFlood flood-opacity="0" result="BackgroundImageFix"/>
<feBlend mode="normal" in="SourceGraphic" in2="BackgroundImageFix" result="shape"/>
<feGaussianBlur stdDeviation="1.75" result="effect1_foregroundBlur_0_4"/>
</filter>
<linearGradient id="paint0_linear_0_4" x1="24.2083" y1="22.1667" x2="24.2083" y2="0" gradientUnits="userSpaceOnUse">
<stop stop-color="#4FA0FF"/>
<stop offset="1" stop-color="#3186FF"/>
</linearGradient>
<linearGradient id="paint1_linear_0_4" x1="25.9758" y1="7.74374" x2="25.9758" y2="29.5146" gradientUnits="userSpaceOnUse">
<stop stop-color="#A9A8FF"/>
<stop offset="0.8" stop-color="#3C90FF"/>
</linearGradient>
</defs>
</svg>
